<svg width="17" height="16" viewBox="0 0 17 16" fill="none" xmlns="http://www.w3.org/2000/svg">
<path d="M5.00008 11.6667C3.15913 11.6667 1.66675 10.224 1.66675 8.44447C1.66675 6.76913 2.9894 5.3924 4.68036 5.23685M4.68036 5.23685C4.84163 3.42333 6.41557 2 8.33341 2C10.3585 2 12.0001 3.5869 12.0001 5.54445C12.0001 5.65307 11.995 5.76056 11.9851 5.8667M4.68036 5.23685C4.78559 5.22717 4.89223 5.22222 5.00008 5.22222C5.75063 5.22222 6.44324 5.46201 7.00041 5.86667M12.0001 11.6667C13.6569 11.6667 15.0001 10.3683 15.0001 8.76667C15.0001 7.16507 13.6569 5.86667 12.0001 5.86667C11.9951 5.86667 11.9901 5.86668 11.9851 5.8667M11.9851 5.8667C11.9169 6.59779 11.6191 7.26487 11.1619 7.8" stroke="white" stroke-linecap="round" stroke-linejoin="round"/>
<path d="M8.71896 9.33325L7.53622 11.1225C7.37789 11.362 7.29876 11.4817 7.34782 11.5742C7.39682 11.6666 7.53956 11.6666 7.82502 11.6666H8.84169C9.12716 11.6666 9.26989 11.6666 9.31889 11.759C9.36796 11.8515 9.28882 11.9712 9.13049 12.2107L7.94776 13.9999" stroke="white" stroke-linecap="round" stroke-linejoin="round"/>
</svg>
