<svg width="16" height="16" viewBox="0 0 16 16" fill="none" xmlns="http://www.w3.org/2000/svg">
<path d="M11.6518 5.79821C11.6567 5.79818 11.6617 5.79817 11.6667 5.79817C13.3236 5.79817 14.6667 7.07353 14.6667 8.6468C14.6667 9.88713 13.8319 10.9423 12.6667 11.3333M11.6518 5.79821C11.6616 5.69395 11.6667 5.58836 11.6667 5.48165C11.6667 3.55879 10.0251 2 8.00004 2C6.0822 2 4.50826 3.39812 4.34699 5.17951M11.6518 5.79821C11.5836 6.51634 11.2858 7.1716 10.8286 7.69727M4.34699 5.17951C2.65603 5.33231 1.33337 6.6846 1.33337 8.33027C1.33337 9.3658 1.85707 10.2852 2.66671 10.8626M4.34699 5.17951C4.45221 5.17001 4.55886 5.16514 4.66671 5.16514C5.41725 5.16514 6.10987 5.40069 6.66704 5.79817" stroke="white" stroke-linecap="round" stroke-linejoin="round"/>
<path d="M6.05223 9L4.86952 10.7892C4.71119 11.0287 4.63201 11.1485 4.68106 11.2409C4.73011 11.3333 4.87283 11.3333 5.15827 11.3333H6.17498C6.46042 11.3333 6.60315 11.3333 6.65219 11.4257C6.70123 11.5182 6.62207 11.6379 6.46373 11.8775L5.28103 13.6667" stroke="white" stroke-linecap="round" stroke-linejoin="round"/>
<path d="M10.6667 12.3333L10 13.6666" stroke="white" stroke-linecap="round" stroke-linejoin="round"/>
<path d="M8.66667 12.3333L8 13.6666" stroke="white" stroke-linecap="round" stroke-linejoin="round"/>
</svg>
