<svg width="92" height="68" viewBox="0 0 92 68" fill="none" xmlns="http://www.w3.org/2000/svg">
<circle cx="48.1729" cy="5.22221" r="1.85185" fill="#FFB400"/>
<circle cx="75.3334" cy="2.75297" r="1.85185" fill="#FFB400"/>
<circle cx="90.7654" cy="16.9506" r="1.23457" fill="#FFB400"/>
<circle cx="68.5433" cy="23.1235" r="1.23457" fill="#FFB400"/>
<circle cx="83.9754" cy="28.679" r="1.85185" fill="#FFB400"/>
<path d="M67.9814 12.6636C63.9835 14.1457 61.1358 17.9931 61.1358 22.5061C61.1358 28.3018 65.833 33 71.6296 33C72.3723 33 73.0957 32.9229 73.795 32.7766C71.227 40.0856 64.0607 45.3456 55.6237 45.3456C45.031 45.3456 36.4445 37.0546 36.4445 26.8271C36.4445 16.5996 45.031 8.30859 55.6237 8.30859C60.3305 8.30859 64.6442 9.94614 67.9814 12.6636Z" fill="#FFB400"/>
<path d="M0 50.4321C0 41.2273 7.46192 33.7654 16.6667 33.7654H51.2346C60.4393 33.7654 67.9012 41.2273 67.9012 50.4321C67.9012 59.6368 60.4393 67.0987 51.2346 67.0987H16.6667C7.46192 67.0987 0 59.6368 0 50.4321Z" fill="white"/>
<path d="M33.9506 67.0987C43.1554 67.0987 50.6173 59.6368 50.6173 50.4321V33.1481C50.6173 23.9434 43.1554 16.4814 33.9506 16.4814C24.7459 16.4814 17.284 23.9434 17.284 33.1481V50.4321C17.284 59.6368 24.7459 67.0987 33.9506 67.0987Z" fill="white"/>
</svg>
