<svg width="16" height="16" viewBox="0 0 16 16" fill="none" xmlns="http://www.w3.org/2000/svg">
<path d="M11.6518 7.33332C11.6567 7.33325 11.6617 7.33325 11.6667 7.33325C13.3236 7.33325 14.6667 8.67639 14.6667 10.3333C14.6667 11.9901 13.3236 13.3333 11.6667 13.3333H4.66671C2.82576 13.3333 1.33337 11.8409 1.33337 9.99992C1.33337 8.26679 2.65603 6.84265 4.34699 6.68172M11.6518 7.33332C11.6616 7.22352 11.6667 7.11232 11.6667 6.99992C11.6667 4.97487 10.0251 3.33325 8.00004 3.33325C6.0822 3.33325 4.50826 4.80567 4.34699 6.68172M11.6518 7.33332C11.5836 8.08959 11.2858 8.77965 10.8286 9.33325M4.34699 6.68172C4.45221 6.67172 4.55886 6.66659 4.66671 6.66659C5.41725 6.66659 6.10987 6.91465 6.66704 7.33325" stroke="white" stroke-linecap="round" stroke-linejoin="round"/>
<path d="M6.00004 3.76987C5.53705 3.10309 4.76729 2.66675 3.89596 2.66675C2.48068 2.66675 1.33337 3.81791 1.33337 5.23794C1.33337 6.10244 1.75859 6.86728 2.41063 7.33341" stroke="white"/>
</svg>
